<svg width="282" height="50" viewBox="0 0 282 50" fill="none" xmlns="http://www.w3.org/2000/svg">
<path d="M27.149 7.7H41.073V49H27.149V7.7ZM14.287 49H0.363V7.7H14.287V49ZM28.093 33.778H13.343V22.332H28.093V33.778ZM47.3689 49V5.222H60.7029V49H47.3689ZM79.2391 49.59C76.4858 49.59 73.7718 49.295 71.0971 48.705C68.4224 48.115 66.2591 47.348 64.6071 46.404L68.2651 37.613C69.7991 38.5177 71.5691 39.2257 73.5751 39.737C75.6204 40.2483 77.6068 40.504 79.5341 40.504C81.1468 40.504 82.2284 40.3663 82.7791 40.091C83.3691 39.8157 83.6641 39.442 83.6641 38.97C83.6641 38.498 83.3298 38.1637 82.6611 37.967C81.9924 37.731 81.1074 37.554 80.0061 37.436C78.9048 37.318 77.6854 37.1803 76.3481 37.023C75.0501 36.8263 73.7324 36.551 72.3951 36.197C71.0578 35.843 69.8384 35.312 68.7371 34.604C67.6358 33.896 66.7508 32.952 66.0821 31.772C65.4134 30.5527 65.0791 29.0187 65.0791 27.17C65.0791 25.1247 65.6888 23.276 66.9081 21.624C68.1668 19.972 70.0154 18.6543 72.4541 17.671C74.9321 16.6483 77.9804 16.137 81.5991 16.137C83.9591 16.137 86.3191 16.3533 88.6791 16.786C91.0391 17.2187 93.0648 17.8873 94.7561 18.792L91.0981 27.583C89.4461 26.6783 87.8138 26.0687 86.2011 25.754C84.6278 25.4 83.1528 25.223 81.7761 25.223C80.0848 25.223 78.9244 25.3803 78.2951 25.695C77.7051 26.0097 77.4101 26.3637 77.4101 26.757C77.4101 27.229 77.7444 27.583 78.4131 27.819C79.0818 28.055 79.9668 28.232 81.0681 28.35C82.1694 28.468 83.3691 28.6253 84.6671 28.822C86.0044 28.9793 87.3221 29.2547 88.6201 29.648C89.9574 30.002 91.1768 30.533 92.2781 31.241C93.3794 31.949 94.2644 32.9127 94.9331 34.132C95.6018 35.312 95.9361 36.8263 95.9361 38.675C95.9361 40.6023 95.3264 42.4117 94.1071 44.103C92.8878 45.755 91.0391 47.0923 88.5611 48.115C86.0831 49.0983 82.9758 49.59 79.2391 49.59ZM113.366 49L95.9024 7.7H110.888L125.107 42.569H116.198L130.83 7.7H144.518L127.054 49H113.366ZM146.643 49V16.727H159.977V49H146.643ZM153.31 14.131C150.872 14.131 148.925 13.482 147.469 12.184C146.014 10.886 145.286 9.27333 145.286 7.346C145.286 5.41866 146.014 3.806 147.469 2.508C148.925 1.21 150.872 0.560998 153.31 0.560998C155.749 0.560998 157.696 1.17066 159.151 2.39C160.607 3.60933 161.334 5.18266 161.334 7.11C161.334 9.15533 160.607 10.8467 159.151 12.184C157.696 13.482 155.749 14.131 153.31 14.131ZM180.048 49.59C177.255 49.59 174.659 48.9213 172.26 47.584C169.9 46.2073 168.012 44.28 166.596 41.802C165.18 39.2847 164.472 36.2953 164.472 32.834C164.472 29.3727 165.18 26.403 166.596 23.925C168.012 21.4077 169.9 19.4803 172.26 18.143C174.659 16.8057 177.255 16.137 180.048 16.137C182.88 16.137 185.2 16.7467 187.01 17.966C188.819 19.146 190.156 20.975 191.022 23.453C191.887 25.8917 192.32 29.0187 192.32 32.834C192.32 36.6887 191.907 39.855 191.081 42.333C190.294 44.811 188.996 46.64 187.187 47.82C185.417 49 183.037 49.59 180.048 49.59ZM183.234 39.206C184.217 39.206 185.102 38.97 185.889 38.498C186.675 38.026 187.305 37.318 187.777 36.374C188.249 35.3907 188.485 34.2107 188.485 32.834C188.485 31.418 188.249 30.2577 187.777 29.353C187.305 28.409 186.675 27.701 185.889 27.229C185.102 26.757 184.217 26.521 183.234 26.521C182.25 26.521 181.365 26.757 180.579 27.229C179.792 27.701 179.163 28.409 178.691 29.353C178.219 30.2577 177.983 31.418 177.983 32.834C177.983 34.2107 178.219 35.3907 178.691 36.374C179.163 37.318 179.792 38.026 180.579 38.498C181.365 38.97 182.25 39.206 183.234 39.206ZM188.898 49V44.634L188.839 32.834L188.249 21.034V5.222H201.583V49H188.898ZM225.305 49.59C221.372 49.59 217.93 48.8623 214.98 47.407C212.069 45.9517 209.808 43.9653 208.195 41.448C206.582 38.8913 205.776 36.02 205.776 32.834C205.776 29.5693 206.563 26.6783 208.136 24.161C209.749 21.6437 211.932 19.677 214.685 18.261C217.478 16.845 220.605 16.137 224.066 16.137C227.252 16.137 230.182 16.7663 232.857 18.025C235.571 19.2837 237.734 21.152 239.347 23.63C240.999 26.108 241.825 29.176 241.825 32.834C241.825 33.306 241.805 33.837 241.766 34.427C241.727 34.9777 241.687 35.489 241.648 35.961H216.809V29.53H234.568L229.553 31.241C229.553 29.9823 229.317 28.9203 228.845 28.055C228.412 27.1503 227.803 26.462 227.016 25.99C226.229 25.4787 225.285 25.223 224.184 25.223C223.083 25.223 222.119 25.4787 221.293 25.99C220.506 26.462 219.897 27.1503 219.464 28.055C219.031 28.9203 218.815 29.9823 218.815 31.241V33.247C218.815 34.6237 219.09 35.8037 219.641 36.787C220.192 37.7703 220.978 38.5177 222.001 39.029C223.024 39.501 224.263 39.737 225.718 39.737C227.213 39.737 228.432 39.5403 229.376 39.147C230.359 38.7537 231.382 38.1637 232.444 37.377L239.406 44.398C237.833 46.0893 235.886 47.3873 233.565 48.292C231.284 49.1573 228.53 49.59 225.305 49.59ZM263.084 49.59C259.426 49.59 256.181 48.882 253.349 47.466C250.556 46.0107 248.354 44.0243 246.741 41.507C245.128 38.9897 244.322 36.0987 244.322 32.834C244.322 29.5693 245.128 26.6783 246.741 24.161C248.354 21.6437 250.556 19.677 253.349 18.261C256.181 16.845 259.426 16.137 263.084 16.137C266.742 16.137 269.987 16.845 272.819 18.261C275.651 19.677 277.854 21.6437 279.427 24.161C281.04 26.6783 281.846 29.5693 281.846 32.834C281.846 36.0987 281.04 38.9897 279.427 41.507C277.854 44.0243 275.651 46.0107 272.819 47.466C269.987 48.882 266.742 49.59 263.084 49.59ZM263.084 39.206C264.067 39.206 264.952 38.97 265.739 38.498C266.526 38.026 267.155 37.318 267.627 36.374C268.099 35.3907 268.335 34.2107 268.335 32.834C268.335 31.418 268.099 30.2577 267.627 29.353C267.155 28.409 266.526 27.701 265.739 27.229C264.952 26.757 264.067 26.521 263.084 26.521C262.101 26.521 261.216 26.757 260.429 27.229C259.642 27.701 259.013 28.409 258.541 29.353C258.069 30.2577 257.833 31.418 257.833 32.834C257.833 34.2107 258.069 35.3907 258.541 36.374C259.013 37.318 259.642 38.026 260.429 38.498C261.216 38.97 262.101 39.206 263.084 39.206Z" fill="white"/>
</svg>
