<svg width="549" height="60" viewBox="0 0 549 60" fill="none" xmlns="http://www.w3.org/2000/svg">
<path d="M27.8088 59V51.05L27.1338 49.325V35.225C27.1338 32.675 26.3588 30.7 24.8088 29.3C23.2588 27.85 20.8588 27.125 17.6088 27.125C15.4588 27.125 13.3338 27.475 11.2338 28.175C9.13379 28.825 7.35879 29.725 5.90879 30.875L1.85879 23.075C4.05879 21.475 6.68379 20.275 9.73379 19.475C12.7838 18.625 15.9088 18.2 19.1088 18.2C25.2088 18.2 29.9338 19.625 33.2838 22.475C36.6338 25.325 38.3088 29.775 38.3088 35.825V59H27.8088ZM15.4338 59.525C12.3338 59.525 9.65879 59 7.40879 57.95C5.15879 56.9 3.43379 55.475 2.23379 53.675C1.03379 51.825 0.433789 49.725 0.433789 47.375C0.433789 45.025 1.00879 42.95 2.15879 41.15C3.30879 39.35 5.13379 37.95 7.63379 36.95C10.1838 35.9 13.5088 35.375 17.6088 35.375H28.4838V42.05H18.7338C15.8838 42.05 13.9338 42.525 12.8838 43.475C11.8338 44.375 11.3088 45.525 11.3088 46.925C11.3088 48.475 11.9088 49.7 13.1088 50.6C14.3088 51.5 15.9838 51.95 18.1338 51.95C20.1838 51.95 22.0088 51.475 23.6088 50.525C25.2588 49.575 26.4338 48.175 27.1338 46.325L28.8588 51.8C28.0088 54.3 26.4338 56.225 24.1338 57.575C21.8838 58.875 18.9838 59.525 15.4338 59.525ZM73.2031 18.2C76.4531 18.2 79.3281 18.825 81.8281 20.075C84.3281 21.325 86.3031 23.275 87.7531 25.925C89.2531 28.525 90.0031 31.875 90.0031 35.975V59H78.8281V37.55C78.8281 34.25 78.0781 31.8 76.5781 30.2C75.1281 28.6 73.0531 27.8 70.3531 27.8C68.4031 27.8 66.6531 28.225 65.1031 29.075C63.6031 29.875 62.4281 31.1 61.5781 32.75C60.7281 34.35 60.3031 36.425 60.3031 38.975V59H49.2031V18.725H59.7781V29.825L57.8281 26.45C59.2781 23.75 61.3281 21.7 63.9781 20.3C66.6781 18.9 69.7531 18.2 73.2031 18.2ZM117.037 59.525C112.337 59.525 108.687 58.35 106.087 56C103.537 53.6 102.262 50.05 102.262 45.35V9.8H113.437V45.125C113.437 46.875 113.887 48.25 114.787 49.25C115.687 50.2 116.937 50.675 118.537 50.675C120.437 50.675 122.062 50.175 123.412 49.175L126.412 57.05C125.262 57.9 123.837 58.525 122.137 58.925C120.487 59.325 118.787 59.525 117.037 59.525ZM95.9621 28.1V19.475H123.637V28.1H95.9621ZM151.763 59.525C147.213 59.525 143.213 58.65 139.763 56.9C136.363 55.1 133.713 52.65 131.813 49.55C129.963 46.4 129.038 42.825 129.038 38.825C129.038 34.825 129.938 31.275 131.738 28.175C133.588 25.025 136.113 22.575 139.313 20.825C142.563 19.075 146.238 18.2 150.338 18.2C154.288 18.2 157.813 19.05 160.913 20.75C164.063 22.4 166.538 24.8 168.338 27.95C170.188 31.05 171.113 34.75 171.113 39.05C171.113 39.5 171.088 40 171.038 40.55C171.038 41.1 171.013 41.6 170.963 42.05H138.038V35.375H165.038L160.763 37.4C160.763 35.3 160.313 33.45 159.413 31.85C158.563 30.2 157.363 28.925 155.813 28.025C154.263 27.125 152.438 26.675 150.338 26.675C148.288 26.675 146.463 27.125 144.863 28.025C143.313 28.925 142.088 30.2 141.188 31.85C140.338 33.45 139.913 35.35 139.913 37.55V39.35C139.913 41.6 140.413 43.575 141.413 45.275C142.413 46.975 143.838 48.3 145.688 49.25C147.538 50.15 149.688 50.6 152.138 50.6C154.288 50.6 156.188 50.275 157.838 49.625C159.488 48.925 161.013 47.9 162.413 46.55L168.338 53.075C166.488 55.175 164.163 56.775 161.363 57.875C158.613 58.975 155.413 59.525 151.763 59.525ZM192.481 59.525C189.081 59.525 185.806 59.125 182.656 58.325C179.506 57.475 177.006 56.425 175.156 55.175L178.981 47.15C180.831 48.3 183.006 49.225 185.506 49.925C188.056 50.625 190.556 50.975 193.006 50.975C195.756 50.975 197.706 50.65 198.856 50C200.056 49.3 200.656 48.35 200.656 47.15C200.656 46.2 200.206 45.475 199.306 44.975C198.456 44.425 197.306 44.025 195.856 43.775C194.406 43.525 192.806 43.275 191.056 43.025C189.306 42.775 187.556 42.45 185.806 42.05C184.056 41.6 182.456 40.95 181.006 40.1C179.556 39.25 178.381 38.125 177.481 36.725C176.631 35.275 176.206 33.375 176.206 31.025C176.206 28.525 176.931 26.3 178.381 24.35C179.881 22.4 182.006 20.9 184.756 19.85C187.506 18.75 190.781 18.2 194.581 18.2C197.381 18.2 200.181 18.5 202.981 19.1C205.781 19.7 208.131 20.55 210.031 21.65L206.206 29.75C204.256 28.6 202.306 27.825 200.356 27.425C198.406 26.975 196.506 26.75 194.656 26.75C191.956 26.75 189.981 27.125 188.731 27.875C187.481 28.575 186.856 29.5 186.856 30.65C186.856 31.65 187.306 32.425 188.206 32.975C189.106 33.525 190.281 33.95 191.731 34.25C193.181 34.55 194.756 34.825 196.456 35.075C198.206 35.275 199.956 35.6 201.706 36.05C203.456 36.5 205.056 37.15 206.506 38C207.956 38.8 209.106 39.925 209.956 41.375C210.856 42.775 211.306 44.6 211.306 46.85C211.306 49.35 210.556 51.55 209.056 53.45C207.606 55.35 205.481 56.85 202.681 57.95C199.881 59 196.481 59.525 192.481 59.525ZM239.926 59V3.35H251.026V59H239.926ZM281.09 59.525C276.89 59.525 273.14 58.65 269.84 56.9C266.54 55.1 263.94 52.65 262.04 49.55C260.14 46.4 259.19 42.825 259.19 38.825C259.19 34.775 260.14 31.2 262.04 28.1C263.94 25 266.515 22.575 269.765 20.825C273.065 19.075 276.84 18.2 281.09 18.2C285.34 18.2 289.115 19.075 292.415 20.825C295.765 22.575 298.365 25 300.215 28.1C302.115 31.2 303.065 34.775 303.065 38.825C303.065 42.875 302.115 46.45 300.215 49.55C298.365 52.65 295.765 55.1 292.415 56.9C289.115 58.65 285.34 59.525 281.09 59.525ZM281.09 50.375C283.14 50.375 284.965 49.925 286.565 49.025C288.165 48.075 289.44 46.725 290.39 44.975C291.34 43.225 291.815 41.175 291.815 38.825C291.815 36.425 291.34 34.375 290.39 32.675C289.44 30.975 288.165 29.675 286.565 28.775C284.965 27.825 283.165 27.35 281.165 27.35C279.115 27.35 277.29 27.825 275.69 28.775C274.09 29.675 272.815 30.975 271.865 32.675C270.915 34.375 270.44 36.425 270.44 38.825C270.44 41.175 270.915 43.225 271.865 44.975C272.815 46.725 274.09 48.075 275.69 49.025C277.29 49.925 279.09 50.375 281.09 50.375ZM324.464 59.525C321.064 59.525 317.789 59.125 314.639 58.325C311.489 57.475 308.989 56.425 307.139 55.175L310.964 47.15C312.814 48.3 314.989 49.225 317.489 49.925C320.039 50.625 322.539 50.975 324.989 50.975C327.739 50.975 329.689 50.65 330.839 50C332.039 49.3 332.639 48.35 332.639 47.15C332.639 46.2 332.189 45.475 331.289 44.975C330.439 44.425 329.289 44.025 327.839 43.775C326.389 43.525 324.789 43.275 323.039 43.025C321.289 42.775 319.539 42.45 317.789 42.05C316.039 41.6 314.439 40.95 312.989 40.1C311.539 39.25 310.364 38.125 309.464 36.725C308.614 35.275 308.189 33.375 308.189 31.025C308.189 28.525 308.914 26.3 310.364 24.35C311.864 22.4 313.989 20.9 316.739 19.85C319.489 18.75 322.764 18.2 326.564 18.2C329.364 18.2 332.164 18.5 334.964 19.1C337.764 19.7 340.114 20.55 342.014 21.65L338.189 29.75C336.239 28.6 334.289 27.825 332.339 27.425C330.389 26.975 328.489 26.75 326.639 26.75C323.939 26.75 321.964 27.125 320.714 27.875C319.464 28.575 318.839 29.5 318.839 30.65C318.839 31.65 319.289 32.425 320.189 32.975C321.089 33.525 322.264 33.95 323.714 34.25C325.164 34.55 326.739 34.825 328.439 35.075C330.189 35.275 331.939 35.6 333.689 36.05C335.439 36.5 337.039 37.15 338.489 38C339.939 38.8 341.089 39.925 341.939 41.375C342.839 42.775 343.289 44.6 343.289 46.85C343.289 49.35 342.539 51.55 341.039 53.45C339.589 55.35 337.464 56.85 334.664 57.95C331.864 59 328.464 59.525 324.464 59.525ZM382.783 59L365.758 18.725H377.233L391.558 53.6H385.783L400.633 18.725H411.283L394.258 59H382.783ZM416.366 59V18.725H427.466V59H416.366ZM421.916 12.875C419.866 12.875 418.191 12.275 416.891 11.075C415.591 9.825 414.941 8.325 414.941 6.575C414.941 4.775 415.591 3.275 416.891 2.075C418.191 0.824996 419.866 0.199997 421.916 0.199997C423.966 0.199997 425.641 0.774997 426.941 1.925C428.241 3.075 428.891 4.55 428.891 6.35C428.891 8.2 428.241 9.75 426.941 11C425.691 12.25 424.016 12.875 421.916 12.875ZM451.905 59.525C448.505 59.525 445.23 59.125 442.08 58.325C438.93 57.475 436.43 56.425 434.58 55.175L438.405 47.15C440.255 48.3 442.43 49.225 444.93 49.925C447.48 50.625 449.98 50.975 452.43 50.975C455.18 50.975 457.13 50.65 458.28 50C459.48 49.3 460.08 48.35 460.08 47.15C460.08 46.2 459.63 45.475 458.73 44.975C457.88 44.425 456.73 44.025 455.28 43.775C453.83 43.525 452.23 43.275 450.48 43.025C448.73 42.775 446.98 42.45 445.23 42.05C443.48 41.6 441.88 40.95 440.43 40.1C438.98 39.25 437.805 38.125 436.905 36.725C436.055 35.275 435.63 33.375 435.63 31.025C435.63 28.525 436.355 26.3 437.805 24.35C439.305 22.4 441.43 20.9 444.18 19.85C446.93 18.75 450.205 18.2 454.005 18.2C456.805 18.2 459.605 18.5 462.405 19.1C465.205 19.7 467.555 20.55 469.455 21.65L465.63 29.75C463.68 28.6 461.73 27.825 459.78 27.425C457.83 26.975 455.93 26.75 454.08 26.75C451.38 26.75 449.405 27.125 448.155 27.875C446.905 28.575 446.28 29.5 446.28 30.65C446.28 31.65 446.73 32.425 447.63 32.975C448.53 33.525 449.705 33.95 451.155 34.25C452.605 34.55 454.18 34.825 455.88 35.075C457.63 35.275 459.38 35.6 461.13 36.05C462.88 36.5 464.48 37.15 465.93 38C467.38 38.8 468.53 39.925 469.38 41.375C470.28 42.775 470.73 44.6 470.73 46.85C470.73 49.35 469.98 51.55 468.48 53.45C467.03 55.35 464.905 56.85 462.105 57.95C459.305 59 455.905 59.525 451.905 59.525ZM494.381 59.525C489.681 59.525 486.031 58.35 483.431 56C480.881 53.6 479.606 50.05 479.606 45.35V9.8H490.781V45.125C490.781 46.875 491.231 48.25 492.131 49.25C493.031 50.2 494.281 50.675 495.881 50.675C497.781 50.675 499.406 50.175 500.756 49.175L503.756 57.05C502.606 57.9 501.181 58.525 499.481 58.925C497.831 59.325 496.131 59.525 494.381 59.525ZM473.306 28.1V19.475H500.981V28.1H473.306ZM529.107 59.525C524.557 59.525 520.557 58.65 517.107 56.9C513.707 55.1 511.057 52.65 509.157 49.55C507.307 46.4 506.382 42.825 506.382 38.825C506.382 34.825 507.282 31.275 509.082 28.175C510.932 25.025 513.457 22.575 516.657 20.825C519.907 19.075 523.582 18.2 527.682 18.2C531.632 18.2 535.157 19.05 538.257 20.75C541.407 22.4 543.882 24.8 545.682 27.95C547.532 31.05 548.457 34.75 548.457 39.05C548.457 39.5 548.432 40 548.382 40.55C548.382 41.1 548.357 41.6 548.307 42.05H515.382V35.375H542.382L538.107 37.4C538.107 35.3 537.657 33.45 536.757 31.85C535.907 30.2 534.707 28.925 533.157 28.025C531.607 27.125 529.782 26.675 527.682 26.675C525.632 26.675 523.807 27.125 522.207 28.025C520.657 28.925 519.432 30.2 518.532 31.85C517.682 33.45 517.257 35.35 517.257 37.55V39.35C517.257 41.6 517.757 43.575 518.757 45.275C519.757 46.975 521.182 48.3 523.032 49.25C524.882 50.15 527.032 50.6 529.482 50.6C531.632 50.6 533.532 50.275 535.182 49.625C536.832 48.925 538.357 47.9 539.757 46.55L545.682 53.075C543.832 55.175 541.507 56.775 538.707 57.875C535.957 58.975 532.757 59.525 529.107 59.525Z" fill="url(#paint0_linear_8_137)"/>
<defs>
<linearGradient id="paint0_linear_8_137" x1="-3" y1="59.4286" x2="551" y2="59.4286" gradientUnits="userSpaceOnUse">
<stop stop-color="#EF5D70"/>
<stop offset="1" stop-color="#EFD677"/>
</linearGradient>
</defs>
</svg>
