<svg width="513" height="48" viewBox="0 0 513 48" fill="none" xmlns="http://www.w3.org/2000/svg">
<path d="M24.7652 47.715C21.2552 47.715 18.0052 47.1517 15.0152 46.025C12.0252 44.855 9.42522 43.23 7.21521 41.15C5.00522 39.0267 3.27188 36.535 2.01522 33.675C0.801882 30.815 0.195215 27.6733 0.195215 24.25C0.195215 20.8267 0.801882 17.685 2.01522 14.825C3.27188 11.965 5.00522 9.495 7.21521 7.415C9.42522 5.29166 12.0252 3.66666 15.0152 2.54C18.0485 1.37 21.3202 0.784998 24.8302 0.784998C28.7302 0.784998 32.2619 1.45667 35.4252 2.8C38.5885 4.14333 41.2319 6.115 43.3552 8.715L36.9202 14.695C35.3602 12.9183 33.6052 11.575 31.6552 10.665C29.7052 9.755 27.5819 9.3 25.2852 9.3C23.1185 9.3 21.1252 9.66833 19.3052 10.405C17.4852 11.1417 15.9035 12.1817 14.5602 13.525C13.2169 14.825 12.1769 16.385 11.4402 18.205C10.7035 20.025 10.3352 22.04 10.3352 24.25C10.3352 26.46 10.7035 28.475 11.4402 30.295C12.1769 32.115 13.2169 33.6967 14.5602 35.04C15.9035 36.34 17.4852 37.3583 19.3052 38.095C21.1252 38.8317 23.1185 39.2 25.2852 39.2C27.5819 39.2 29.7052 38.745 31.6552 37.835C33.6052 36.925 35.3602 35.56 36.9202 33.74L43.3552 39.785C41.2319 42.3417 38.5885 44.3133 35.4252 45.7C32.2619 47.0433 28.7085 47.715 24.7652 47.715ZM50.0142 47V12.095H59.1792V21.91L57.9442 19.05C58.9842 16.6233 60.6308 14.7817 62.8842 13.525C65.1808 12.2683 67.9975 11.64 71.3342 11.64V20.61C70.9008 20.5233 70.5108 20.48 70.1642 20.48C69.8175 20.4367 69.4708 20.415 69.1242 20.415C66.2642 20.415 63.9675 21.2383 62.2342 22.885C60.5008 24.5317 59.6342 27.045 59.6342 30.425V47H50.0142ZM94.3391 47.455C90.3957 47.455 86.9291 46.6967 83.9391 45.18C80.9924 43.62 78.6957 41.4967 77.0491 38.81C75.4457 36.08 74.6441 32.9817 74.6441 29.515C74.6441 26.0483 75.4241 22.9717 76.9841 20.285C78.5874 17.555 80.7757 15.4317 83.5491 13.915C86.3657 12.3983 89.5507 11.64 93.1041 11.64C96.5274 11.64 99.5824 12.3767 102.269 13.85C104.999 15.28 107.144 17.36 108.704 20.09C110.307 22.7767 111.109 25.9833 111.109 29.71C111.109 30.1 111.087 30.5333 111.044 31.01C111.044 31.4867 111.022 31.92 110.979 32.31H82.4441V26.525H105.844L102.139 28.28C102.139 26.46 101.749 24.8567 100.969 23.47C100.232 22.04 99.1924 20.935 97.8491 20.155C96.5058 19.375 94.9241 18.985 93.1041 18.985C91.3274 18.985 89.7457 19.375 88.3591 20.155C87.0157 20.935 85.9541 22.04 85.1741 23.47C84.4374 24.8567 84.0691 26.5033 84.0691 28.41V29.97C84.0691 31.92 84.5024 33.6317 85.3691 35.105C86.2357 36.5783 87.4707 37.7267 89.0741 38.55C90.6774 39.33 92.5407 39.72 94.6641 39.72C96.5274 39.72 98.1741 39.4383 99.6041 38.875C101.034 38.2683 102.356 37.38 103.569 36.21L108.704 41.865C107.101 43.685 105.086 45.0717 102.659 46.025C100.276 46.9783 97.5024 47.455 94.3391 47.455ZM138.621 47V40.11L138.036 38.615V26.395C138.036 24.185 137.364 22.4733 136.021 21.26C134.678 20.0033 132.598 19.375 129.781 19.375C127.918 19.375 126.076 19.6783 124.256 20.285C122.436 20.8483 120.898 21.6283 119.641 22.625L116.131 15.865C118.038 14.4783 120.313 13.4383 122.956 12.745C125.599 12.0083 128.308 11.64 131.081 11.64C136.368 11.64 140.463 12.875 143.366 15.345C146.269 17.815 147.721 21.6717 147.721 26.915V47H138.621ZM127.896 47.455C125.209 47.455 122.891 47 120.941 46.09C118.991 45.18 117.496 43.945 116.456 42.385C115.416 40.7817 114.896 38.9617 114.896 36.925C114.896 34.8883 115.394 33.09 116.391 31.53C117.388 29.97 118.969 28.7567 121.136 27.89C123.346 26.98 126.228 26.525 129.781 26.525H139.206V32.31H130.756C128.286 32.31 126.596 32.7217 125.686 33.545C124.776 34.325 124.321 35.3217 124.321 36.535C124.321 37.8783 124.841 38.94 125.881 39.72C126.921 40.5 128.373 40.89 130.236 40.89C132.013 40.89 133.594 40.4783 134.981 39.655C136.411 38.8317 137.429 37.6183 138.036 36.015L139.531 40.76C138.794 42.9267 137.429 44.595 135.436 45.765C133.486 46.8917 130.973 47.455 127.896 47.455ZM185.519 47V9.755H170.829V1.5H210.219V9.755H195.529V47H185.519ZM229.299 47.455C226.396 47.455 223.796 46.9133 221.499 45.83C219.246 44.7033 217.491 42.9917 216.234 40.695C214.977 38.355 214.349 35.4083 214.349 31.855V12.095H223.969V30.425C223.969 33.415 224.619 35.625 225.919 37.055C227.219 38.4417 229.017 39.135 231.314 39.135C232.961 39.135 234.412 38.7883 235.669 38.095C236.969 37.3583 237.966 36.275 238.659 34.845C239.396 33.415 239.764 31.6167 239.764 29.45V12.095H249.449V47H240.219V37.445L241.909 40.24C240.739 42.6233 239.006 44.4217 236.709 45.635C234.456 46.8483 231.986 47.455 229.299 47.455ZM299.682 47.715C296.172 47.715 292.922 47.1517 289.932 46.025C286.942 44.855 284.342 43.23 282.132 41.15C279.922 39.0267 278.189 36.535 276.932 33.675C275.719 30.815 275.112 27.6733 275.112 24.25C275.112 20.8267 275.719 17.685 276.932 14.825C278.189 11.965 279.922 9.495 282.132 7.415C284.342 5.29166 286.942 3.66666 289.932 2.54C292.966 1.37 296.237 0.784998 299.747 0.784998C303.647 0.784998 307.179 1.45667 310.342 2.8C313.506 4.14333 316.149 6.115 318.272 8.715L311.837 14.695C310.277 12.9183 308.522 11.575 306.572 10.665C304.622 9.755 302.499 9.3 300.202 9.3C298.036 9.3 296.042 9.66833 294.222 10.405C292.402 11.1417 290.821 12.1817 289.477 13.525C288.134 14.825 287.094 16.385 286.357 18.205C285.621 20.025 285.252 22.04 285.252 24.25C285.252 26.46 285.621 28.475 286.357 30.295C287.094 32.115 288.134 33.6967 289.477 35.04C290.821 36.34 292.402 37.3583 294.222 38.095C296.042 38.8317 298.036 39.2 300.202 39.2C302.499 39.2 304.622 38.745 306.572 37.835C308.522 36.925 310.277 35.56 311.837 33.74L318.272 39.785C316.149 42.3417 313.506 44.3133 310.342 45.7C307.179 47.0433 303.626 47.715 299.682 47.715ZM338.732 47.455C335.829 47.455 333.229 46.9133 330.932 45.83C328.679 44.7033 326.924 42.9917 325.667 40.695C324.411 38.355 323.782 35.4083 323.782 31.855V12.095H333.402V30.425C333.402 33.415 334.052 35.625 335.352 37.055C336.652 38.4417 338.451 39.135 340.747 39.135C342.394 39.135 343.846 38.7883 345.102 38.095C346.402 37.3583 347.399 36.275 348.092 34.845C348.829 33.415 349.197 31.6167 349.197 29.45V12.095H358.882V47H349.652V37.445L351.342 40.24C350.172 42.6233 348.439 44.4217 346.142 45.635C343.889 46.8483 341.419 47.455 338.732 47.455ZM385.57 47.455C381.626 47.455 378.16 46.6967 375.17 45.18C372.223 43.62 369.926 41.4967 368.28 38.81C366.676 36.08 365.875 32.9817 365.875 29.515C365.875 26.0483 366.655 22.9717 368.215 20.285C369.818 17.555 372.006 15.4317 374.78 13.915C377.596 12.3983 380.781 11.64 384.335 11.64C387.758 11.64 390.813 12.3767 393.5 13.85C396.23 15.28 398.375 17.36 399.935 20.09C401.538 22.7767 402.34 25.9833 402.34 29.71C402.34 30.1 402.318 30.5333 402.275 31.01C402.275 31.4867 402.253 31.92 402.21 32.31H373.675V26.525H397.075L393.37 28.28C393.37 26.46 392.98 24.8567 392.2 23.47C391.463 22.04 390.423 20.935 389.08 20.155C387.736 19.375 386.155 18.985 384.335 18.985C382.558 18.985 380.976 19.375 379.59 20.155C378.246 20.935 377.185 22.04 376.405 23.47C375.668 24.8567 375.3 26.5033 375.3 28.41V29.97C375.3 31.92 375.733 33.6317 376.6 35.105C377.466 36.5783 378.701 37.7267 380.305 38.55C381.908 39.33 383.771 39.72 385.895 39.72C387.758 39.72 389.405 39.4383 390.835 38.875C392.265 38.2683 393.586 37.38 394.8 36.21L399.935 41.865C398.331 43.685 396.316 45.0717 393.89 46.025C391.506 46.9783 388.733 47.455 385.57 47.455ZM430.218 11.64C433.035 11.64 435.527 12.1817 437.693 13.265C439.86 14.3483 441.572 16.0383 442.828 18.335C444.128 20.5883 444.778 23.4917 444.778 27.045V47H435.093V28.41C435.093 25.55 434.443 23.4267 433.143 22.04C431.887 20.6533 430.088 19.96 427.748 19.96C426.058 19.96 424.542 20.3283 423.198 21.065C421.898 21.7583 420.88 22.82 420.143 24.25C419.407 25.6367 419.038 27.435 419.038 29.645V47H409.418V12.095H418.583V21.715L416.893 18.79C418.15 16.45 419.927 14.6733 422.223 13.46C424.563 12.2467 427.228 11.64 430.218 11.64ZM468.208 47.455C464.135 47.455 460.971 46.4367 458.718 44.4C456.508 42.32 455.403 39.2433 455.403 35.17V4.36H465.088V34.975C465.088 36.4917 465.478 37.6833 466.258 38.55C467.038 39.3733 468.121 39.785 469.508 39.785C471.155 39.785 472.563 39.3517 473.733 38.485L476.333 45.31C475.336 46.0467 474.101 46.5883 472.628 46.935C471.198 47.2817 469.725 47.455 468.208 47.455ZM449.943 20.22V12.745H473.928V20.22H449.943ZM503.738 47V40.11L503.153 38.615V26.395C503.153 24.185 502.481 22.4733 501.138 21.26C499.795 20.0033 497.715 19.375 494.898 19.375C493.035 19.375 491.193 19.6783 489.373 20.285C487.553 20.8483 486.015 21.6283 484.758 22.625L481.248 15.865C483.155 14.4783 485.43 13.4383 488.073 12.745C490.716 12.0083 493.425 11.64 496.198 11.64C501.485 11.64 505.58 12.875 508.483 15.345C511.386 17.815 512.838 21.6717 512.838 26.915V47H503.738ZM493.013 47.455C490.326 47.455 488.008 47 486.058 46.09C484.108 45.18 482.613 43.945 481.573 42.385C480.533 40.7817 480.013 38.9617 480.013 36.925C480.013 34.8883 480.511 33.09 481.508 31.53C482.505 29.97 484.086 28.7567 486.253 27.89C488.463 26.98 491.345 26.525 494.898 26.525H504.323V32.31H495.873C493.403 32.31 491.713 32.7217 490.803 33.545C489.893 34.325 489.438 35.3217 489.438 36.535C489.438 37.8783 489.958 38.94 490.998 39.72C492.038 40.5 493.49 40.89 495.353 40.89C497.13 40.89 498.711 40.4783 500.098 39.655C501.528 38.8317 502.546 37.6183 503.153 36.015L504.648 40.76C503.911 42.9267 502.546 44.595 500.553 45.765C498.603 46.8917 496.09 47.455 493.013 47.455Z" fill="url(#paint0_linear_8_116)"/>
<defs>
<linearGradient id="paint0_linear_8_116" x1="-97" y1="46.8775" x2="612" y2="46.8776" gradientUnits="userSpaceOnUse">
<stop stop-color="#EF5D70"/>
<stop offset="1" stop-color="#EFD677"/>
</linearGradient>
</defs>
</svg>
