<svg width="442" height="52" viewBox="0 0 442 52" fill="none" xmlns="http://www.w3.org/2000/svg">
<path d="M0.113438 51V5.5H10.1234V51H0.113438ZM41.3996 15.64C44.2163 15.64 46.7079 16.1817 48.8746 17.265C51.0413 18.3483 52.7529 20.0383 54.0096 22.335C55.3096 24.5883 55.9596 27.4917 55.9596 31.045V51H46.2746V32.41C46.2746 29.55 45.6246 27.4267 44.3246 26.04C43.0679 24.6533 41.2696 23.96 38.9296 23.96C37.2396 23.96 35.7229 24.3283 34.3796 25.065C33.0796 25.7583 32.0613 26.82 31.3246 28.25C30.5879 29.6367 30.2196 31.435 30.2196 33.645V51H20.5996V16.095H29.7646V25.715L28.0746 22.79C29.3313 20.45 31.1079 18.6733 33.4046 17.46C35.7446 16.2467 38.4096 15.64 41.3996 15.64ZM65.4141 51V16.095H75.0341V51H65.4141ZM70.2241 11.025C68.4474 11.025 66.9957 10.505 65.8691 9.465C64.7424 8.38166 64.1791 7.08166 64.1791 5.565C64.1791 4.005 64.7424 2.705 65.8691 1.665C66.9957 0.581664 68.4474 0.0399975 70.2241 0.0399975C72.0007 0.0399975 73.4524 0.538331 74.5791 1.535C75.7057 2.53166 76.2691 3.81 76.2691 5.37C76.2691 6.97333 75.7057 8.31666 74.5791 9.4C73.4957 10.4833 72.0441 11.025 70.2241 11.025ZM101.414 51.455C97.6877 51.455 94.3511 50.6967 91.4044 49.18C88.5011 47.6633 86.2261 45.5617 84.5794 42.875C82.9327 40.145 82.1094 37.025 82.1094 33.515C82.1094 30.005 82.9327 26.9067 84.5794 24.22C86.2261 21.5333 88.5011 19.4317 91.4044 17.915C94.3511 16.3983 97.6877 15.64 101.414 15.64C105.011 15.64 108.153 16.3767 110.839 17.85C113.569 19.3233 115.563 21.4683 116.819 24.285L109.409 28.38C108.456 26.7333 107.264 25.52 105.834 24.74C104.448 23.96 102.953 23.57 101.349 23.57C99.5727 23.57 97.9477 23.9817 96.4744 24.805C95.0444 25.585 93.9177 26.7117 93.0944 28.185C92.2711 29.6583 91.8594 31.435 91.8594 33.515C91.8594 35.595 92.2711 37.3933 93.0944 38.91C93.9177 40.3833 95.0444 41.5317 96.4744 42.355C97.9477 43.135 99.5727 43.525 101.349 43.525C102.953 43.525 104.448 43.135 105.834 42.355C107.264 41.575 108.456 40.3617 109.409 38.715L116.819 42.81C115.563 45.5833 113.569 47.7283 110.839 49.245C108.153 50.7183 105.011 51.455 101.414 51.455ZM122.797 51V16.095H132.417V51H122.797ZM127.607 11.025C125.83 11.025 124.379 10.505 123.252 9.465C122.125 8.38166 121.562 7.08166 121.562 5.565C121.562 4.005 122.125 2.705 123.252 1.665C124.379 0.581664 125.83 0.0399975 127.607 0.0399975C129.384 0.0399975 130.835 0.538331 131.962 1.535C133.089 2.53166 133.652 3.81 133.652 5.37C133.652 6.97333 133.089 8.31666 131.962 9.4C130.879 10.4833 129.427 11.025 127.607 11.025ZM163.542 51V44.11L162.957 42.615V30.395C162.957 28.185 162.286 26.4733 160.942 25.26C159.599 24.0033 157.519 23.375 154.702 23.375C152.839 23.375 150.997 23.6783 149.177 24.285C147.357 24.8483 145.819 25.6283 144.562 26.625L141.052 19.865C142.959 18.4783 145.234 17.4383 147.877 16.745C150.521 16.0083 153.229 15.64 156.002 15.64C161.289 15.64 165.384 16.875 168.287 19.345C171.191 21.815 172.642 25.6717 172.642 30.915V51H163.542ZM152.817 51.455C150.131 51.455 147.812 51 145.862 50.09C143.912 49.18 142.417 47.945 141.377 46.385C140.337 44.7817 139.817 42.9617 139.817 40.925C139.817 38.8883 140.316 37.09 141.312 35.53C142.309 33.97 143.891 32.7567 146.057 31.89C148.267 30.98 151.149 30.525 154.702 30.525H164.127V36.31H155.677C153.207 36.31 151.517 36.7217 150.607 37.545C149.697 38.325 149.242 39.3217 149.242 40.535C149.242 41.8783 149.762 42.94 150.802 43.72C151.842 44.5 153.294 44.89 155.157 44.89C156.934 44.89 158.516 44.4783 159.902 43.655C161.332 42.8317 162.351 41.6183 162.957 40.015L164.452 44.76C163.716 46.9267 162.351 48.595 160.357 49.765C158.407 50.8917 155.894 51.455 152.817 51.455ZM182.084 51V16.095H191.249V25.91L190.014 23.05C191.054 20.6233 192.701 18.7817 194.954 17.525C197.251 16.2683 200.067 15.64 203.404 15.64V24.61C202.971 24.5233 202.581 24.48 202.234 24.48C201.887 24.4367 201.541 24.415 201.194 24.415C198.334 24.415 196.037 25.2383 194.304 26.885C192.571 28.5317 191.704 31.045 191.704 34.425V51H182.084ZM243.701 51.715C240.061 51.715 236.573 51.2383 233.236 50.285C229.943 49.2883 227.3 48.01 225.306 46.45L228.686 38.845C230.593 40.2317 232.89 41.38 235.576 42.29C238.263 43.2 240.971 43.655 243.701 43.655C245.868 43.655 247.601 43.4383 248.901 43.005C250.245 42.5283 251.22 41.9217 251.826 41.185C252.476 40.405 252.801 39.5167 252.801 38.52C252.801 37.2633 252.303 36.2667 251.306 35.53C250.353 34.75 249.096 34.1433 247.536 33.71C245.976 33.2333 244.243 32.8 242.336 32.41C240.473 31.9767 238.588 31.4567 236.681 30.85C234.775 30.2433 233.041 29.4633 231.481 28.51C229.921 27.5567 228.643 26.3 227.646 24.74C226.693 23.18 226.216 21.1867 226.216 18.76C226.216 16.2033 226.91 13.8633 228.296 11.74C229.683 9.61666 231.763 7.92666 234.536 6.67C237.353 5.41333 240.906 4.785 245.196 4.785C248.013 4.785 250.786 5.13166 253.516 5.825C256.29 6.475 258.738 7.45 260.861 8.75L257.676 16.42C255.596 15.2067 253.473 14.3183 251.306 13.755C249.183 13.1483 247.125 12.845 245.131 12.845C243.008 12.845 241.275 13.105 239.931 13.625C238.631 14.1017 237.678 14.7517 237.071 15.575C236.465 16.355 236.161 17.265 236.161 18.305C236.161 19.5183 236.638 20.515 237.591 21.295C238.588 22.0317 239.866 22.6167 241.426 23.05C242.986 23.4833 244.72 23.9167 246.626 24.35C248.533 24.7833 250.418 25.2817 252.281 25.845C254.188 26.4083 255.921 27.1667 257.481 28.12C259.041 29.0733 260.298 30.33 261.251 31.89C262.248 33.45 262.746 35.4217 262.746 37.805C262.746 40.3183 262.053 42.6367 260.666 44.76C259.28 46.84 257.178 48.53 254.361 49.83C251.545 51.0867 247.991 51.715 243.701 51.715ZM286.585 51.455C282.641 51.455 279.175 50.6967 276.185 49.18C273.238 47.62 270.941 45.4967 269.295 42.81C267.691 40.08 266.89 36.9817 266.89 33.515C266.89 30.0483 267.67 26.9717 269.23 24.285C270.833 21.555 273.021 19.4317 275.795 17.915C278.611 16.3983 281.796 15.64 285.35 15.64C288.773 15.64 291.828 16.3767 294.515 17.85C297.245 19.28 299.39 21.36 300.95 24.09C302.553 26.7767 303.355 29.9833 303.355 33.71C303.355 34.1 303.333 34.5333 303.29 35.01C303.29 35.4867 303.268 35.92 303.225 36.31H274.69V30.525H298.09L294.385 32.28C294.385 30.46 293.995 28.8567 293.215 27.47C292.478 26.04 291.438 24.935 290.095 24.155C288.751 23.375 287.17 22.985 285.35 22.985C283.573 22.985 281.991 23.375 280.605 24.155C279.261 24.935 278.2 26.04 277.42 27.47C276.683 28.8567 276.315 30.5033 276.315 32.41V33.97C276.315 35.92 276.748 37.6317 277.615 39.105C278.481 40.5783 279.716 41.7267 281.32 42.55C282.923 43.33 284.786 43.72 286.91 43.72C288.773 43.72 290.42 43.4383 291.85 42.875C293.28 42.2683 294.601 41.38 295.815 40.21L300.95 45.865C299.346 47.685 297.331 49.0717 294.905 50.025C292.521 50.9783 289.748 51.455 286.585 51.455ZM321.874 51.455C318.927 51.455 316.089 51.1083 313.359 50.415C310.629 49.6783 308.462 48.7683 306.859 47.685L310.174 40.73C311.777 41.7267 313.662 42.5283 315.829 43.135C318.039 43.7417 320.205 44.045 322.329 44.045C324.712 44.045 326.402 43.7633 327.399 43.2C328.439 42.5933 328.959 41.77 328.959 40.73C328.959 39.9067 328.569 39.2783 327.789 38.845C327.052 38.3683 326.055 38.0217 324.799 37.805C323.542 37.5883 322.155 37.3717 320.639 37.155C319.122 36.9383 317.605 36.6567 316.089 36.31C314.572 35.92 313.185 35.3567 311.929 34.62C310.672 33.8833 309.654 32.9083 308.874 31.695C308.137 30.4383 307.769 28.7917 307.769 26.755C307.769 24.5883 308.397 22.66 309.654 20.97C310.954 19.28 312.795 17.98 315.179 17.07C317.562 16.1167 320.4 15.64 323.694 15.64C326.12 15.64 328.547 15.9 330.974 16.42C333.4 16.94 335.437 17.6767 337.084 18.63L333.769 25.65C332.079 24.6533 330.389 23.9817 328.699 23.635C327.009 23.245 325.362 23.05 323.759 23.05C321.419 23.05 319.707 23.375 318.624 24.025C317.54 24.6317 316.999 25.4333 316.999 26.43C316.999 27.2967 317.389 27.9683 318.169 28.445C318.949 28.9217 319.967 29.29 321.224 29.55C322.48 29.81 323.845 30.0483 325.319 30.265C326.835 30.4383 328.352 30.72 329.869 31.11C331.385 31.5 332.772 32.0633 334.029 32.8C335.285 33.4933 336.282 34.4683 337.019 35.725C337.799 36.9383 338.189 38.52 338.189 40.47C338.189 42.6367 337.539 44.5433 336.239 46.19C334.982 47.8367 333.14 49.1367 330.714 50.09C328.287 51 325.34 51.455 321.874 51.455ZM344.711 51V16.095H354.331V51H344.711ZM349.521 11.025C347.744 11.025 346.293 10.505 345.166 9.465C344.039 8.38166 343.476 7.08166 343.476 5.565C343.476 4.005 344.039 2.705 345.166 1.665C346.293 0.581664 347.744 0.0399975 349.521 0.0399975C351.298 0.0399975 352.749 0.538331 353.876 1.535C355.003 2.53166 355.566 3.81 355.566 5.37C355.566 6.97333 355.003 8.31666 353.876 9.4C352.793 10.4833 351.341 11.025 349.521 11.025ZM380.386 51.455C376.746 51.455 373.496 50.6967 370.636 49.18C367.776 47.62 365.523 45.4967 363.876 42.81C362.23 40.08 361.406 36.9817 361.406 33.515C361.406 30.005 362.23 26.9067 363.876 24.22C365.523 21.5333 367.755 19.4317 370.571 17.915C373.431 16.3983 376.703 15.64 380.386 15.64C384.07 15.64 387.341 16.3983 390.201 17.915C393.105 19.4317 395.358 21.5333 396.961 24.22C398.608 26.9067 399.431 30.005 399.431 33.515C399.431 37.025 398.608 40.1233 396.961 42.81C395.358 45.4967 393.105 47.62 390.201 49.18C387.341 50.6967 384.07 51.455 380.386 51.455ZM380.386 43.525C382.163 43.525 383.745 43.135 385.131 42.355C386.518 41.5317 387.623 40.3617 388.446 38.845C389.27 37.3283 389.681 35.5517 389.681 33.515C389.681 31.435 389.27 29.6583 388.446 28.185C387.623 26.7117 386.518 25.585 385.131 24.805C383.745 23.9817 382.185 23.57 380.451 23.57C378.675 23.57 377.093 23.9817 375.706 24.805C374.32 25.585 373.215 26.7117 372.391 28.185C371.568 29.6583 371.156 31.435 371.156 33.515C371.156 35.5517 371.568 37.3283 372.391 38.845C373.215 40.3617 374.32 41.5317 375.706 42.355C377.093 43.135 378.653 43.525 380.386 43.525ZM427.337 15.64C430.154 15.64 432.645 16.1817 434.812 17.265C436.979 18.3483 438.69 20.0383 439.947 22.335C441.247 24.5883 441.897 27.4917 441.897 31.045V51H432.212V32.41C432.212 29.55 431.562 27.4267 430.262 26.04C429.005 24.6533 427.207 23.96 424.867 23.96C423.177 23.96 421.66 24.3283 420.317 25.065C419.017 25.7583 417.999 26.82 417.262 28.25C416.525 29.6367 416.157 31.435 416.157 33.645V51H406.537V16.095H415.702V25.715L414.012 22.79C415.269 20.45 417.045 18.6733 419.342 17.46C421.682 16.2467 424.347 15.64 427.337 15.64Z" fill="url(#paint0_linear_8_161)"/>
<defs>
<linearGradient id="paint0_linear_8_161" x1="-134" y1="50.8775" x2="575" y2="50.8776" gradientUnits="userSpaceOnUse">
<stop stop-color="#EF5D70"/>
<stop offset="1" stop-color="#EFD677"/>
</linearGradient>
</defs>
</svg>
