<svg width="487" height="64" viewBox="0 0 487 64" fill="none" xmlns="http://www.w3.org/2000/svg">
<path d="M0.41125 63V7H10.5713L34.5713 46.84H29.2113L52.7313 7H62.9713L63.0513 63H51.4513L51.3713 24.92H53.6113L34.4113 56.92H28.8913L9.37125 24.92H12.0113V63H0.41125ZM75.9375 63V20.04H87.7775V63H75.9375ZM81.8575 13.8C79.6708 13.8 77.8842 13.16 76.4975 11.88C75.1108 10.5467 74.4175 8.94666 74.4175 7.08C74.4175 5.16 75.1108 3.56 76.4975 2.27999C77.8842 0.946663 79.6708 0.279997 81.8575 0.279997C84.0442 0.279997 85.8308 0.89333 87.2175 2.12C88.6042 3.34666 89.2975 4.92 89.2975 6.84C89.2975 8.81333 88.6042 10.4667 87.2175 11.8C85.8842 13.1333 84.0975 13.8 81.8575 13.8ZM161.306 7H174.266V63H161.306V7ZM135.866 63H122.906V7H135.866V63ZM162.266 40.04H134.906V29.08H162.266V40.04ZM186.635 63V3.64H199.115V63H186.635ZM225.178 63.64C221.498 63.64 217.951 63.2133 214.538 62.36C211.178 61.4533 208.511 60.3333 206.538 59L210.698 50.04C212.671 51.2667 214.991 52.28 217.658 53.08C220.378 53.8267 223.044 54.2 225.658 54.2C228.538 54.2 230.564 53.8533 231.738 53.16C232.964 52.4667 233.578 51.5067 233.578 50.28C233.578 49.2667 233.098 48.52 232.138 48.04C231.231 47.5067 230.004 47.1067 228.457 46.84C226.911 46.5733 225.204 46.3067 223.338 46.04C221.524 45.7733 219.684 45.4267 217.818 45C215.951 44.52 214.244 43.8267 212.698 42.92C211.151 42.0133 209.898 40.7867 208.938 39.24C208.031 37.6933 207.577 35.6933 207.577 33.24C207.577 30.52 208.351 28.12 209.898 26.04C211.498 23.96 213.791 22.3333 216.778 21.16C219.764 19.9333 223.338 19.32 227.498 19.32C230.431 19.32 233.418 19.64 236.458 20.28C239.498 20.92 242.031 21.8533 244.058 23.08L239.898 31.96C237.818 30.7333 235.711 29.9067 233.578 29.48C231.498 29 229.471 28.76 227.498 28.76C224.724 28.76 222.698 29.1333 221.418 29.88C220.138 30.6267 219.498 31.5867 219.498 32.76C219.498 33.8267 219.951 34.6267 220.858 35.16C221.818 35.6933 223.071 36.12 224.618 36.44C226.164 36.76 227.844 37.0533 229.658 37.32C231.524 37.5333 233.391 37.88 235.258 38.36C237.124 38.84 238.804 39.5333 240.298 40.44C241.844 41.2933 243.098 42.4933 244.058 44.04C245.018 45.5333 245.498 47.5067 245.498 49.96C245.498 52.6267 244.698 55 243.098 57.08C241.498 59.1067 239.178 60.7067 236.138 61.88C233.151 63.0533 229.498 63.64 225.178 63.64ZM270.878 63L246.717 7H260.718L281.838 56.6H273.598L295.038 7H307.918L283.678 63H270.878ZM312.416 63V19.96H324.896V63H312.416ZM318.656 13.96C316.363 13.96 314.496 13.2933 313.056 11.96C311.616 10.6267 310.896 8.97333 310.896 7C310.896 5.02666 311.616 3.37333 313.056 2.04C314.496 0.706663 316.363 0.0399952 318.656 0.0399952C320.95 0.0399952 322.816 0.679996 324.256 1.96C325.696 3.18667 326.416 4.78667 326.416 6.76C326.416 8.84 325.696 10.5733 324.256 11.96C322.87 13.2933 321.003 13.96 318.656 13.96ZM354.959 63.64C350.905 63.64 347.252 62.7333 343.999 60.92C340.745 59.0533 338.159 56.4667 336.239 53.16C334.372 49.8533 333.439 45.96 333.439 41.48C333.439 36.9467 334.372 33.0267 336.239 29.72C338.159 26.4133 340.745 23.8533 343.999 22.04C347.252 20.2267 350.905 19.32 354.959 19.32C358.585 19.32 361.759 20.12 364.479 21.72C367.199 23.32 369.305 25.7467 370.799 29C372.292 32.2533 373.039 36.4133 373.039 41.48C373.039 46.4933 372.319 50.6533 370.879 53.96C369.439 57.2133 367.359 59.64 364.639 61.24C361.972 62.84 358.745 63.64 354.959 63.64ZM357.119 53.4C359.145 53.4 360.985 52.92 362.639 51.96C364.292 51 365.599 49.64 366.559 47.88C367.572 46.0667 368.079 43.9333 368.079 41.48C368.079 38.9733 367.572 36.84 366.559 35.08C365.599 33.32 364.292 31.96 362.639 31C360.985 30.04 359.145 29.56 357.119 29.56C355.039 29.56 353.172 30.04 351.519 31C349.865 31.96 348.532 33.32 347.519 35.08C346.559 36.84 346.079 38.9733 346.079 41.48C346.079 43.9333 346.559 46.0667 347.519 47.88C348.532 49.64 349.865 51 351.519 51.96C353.172 52.92 355.039 53.4 357.119 53.4ZM368.399 63V54.2L368.639 41.4L367.839 28.68V3.64H380.319V63H368.399ZM413.229 63.64C408.323 63.64 404.003 62.68 400.269 60.76C396.589 58.84 393.736 56.2267 391.709 52.92C389.683 49.56 388.669 45.7467 388.669 41.48C388.669 37.16 389.656 33.3467 391.629 30.04C393.656 26.68 396.403 24.0667 399.869 22.2C403.336 20.28 407.256 19.32 411.629 19.32C415.843 19.32 419.629 20.2267 422.989 22.04C426.403 23.8 429.096 26.36 431.069 29.72C433.043 33.0267 434.029 37 434.029 41.64C434.029 42.12 434.003 42.68 433.949 43.32C433.896 43.9067 433.843 44.4667 433.789 45H398.829V37.72H427.229L422.429 39.88C422.429 37.64 421.976 35.6933 421.069 34.04C420.163 32.3867 418.909 31.1067 417.309 30.2C415.709 29.24 413.843 28.76 411.709 28.76C409.576 28.76 407.683 29.24 406.029 30.2C404.429 31.1067 403.176 32.4133 402.269 34.12C401.363 35.7733 400.909 37.7467 400.909 40.04V41.96C400.909 44.3067 401.416 46.3867 402.429 48.2C403.496 49.96 404.963 51.32 406.829 52.28C408.749 53.1867 410.989 53.64 413.549 53.64C415.843 53.64 417.843 53.2933 419.549 52.6C421.309 51.9067 422.909 50.8667 424.349 49.48L430.989 56.68C429.016 58.92 426.536 60.6533 423.549 61.88C420.563 63.0533 417.123 63.64 413.229 63.64ZM462.818 63.64C458.231 63.64 454.151 62.68 450.578 60.76C447.058 58.84 444.258 56.2267 442.178 52.92C440.151 49.56 439.138 45.7467 439.138 41.48C439.138 37.16 440.151 33.3467 442.178 30.04C444.258 26.68 447.058 24.0667 450.578 22.2C454.151 20.28 458.231 19.32 462.818 19.32C467.351 19.32 471.405 20.28 474.978 22.2C478.551 24.0667 481.351 26.6533 483.378 29.96C485.405 33.2667 486.418 37.1067 486.418 41.48C486.418 45.7467 485.405 49.56 483.378 52.92C481.351 56.2267 478.551 58.84 474.978 60.76C471.405 62.68 467.351 63.64 462.818 63.64ZM462.818 53.4C464.898 53.4 466.765 52.92 468.418 51.96C470.071 51 471.378 49.64 472.338 47.88C473.298 46.0667 473.778 43.9333 473.778 41.48C473.778 38.9733 473.298 36.84 472.338 35.08C471.378 33.32 470.071 31.96 468.418 31C466.765 30.04 464.898 29.56 462.818 29.56C460.738 29.56 458.871 30.04 457.218 31C455.565 31.96 454.231 33.32 453.218 35.08C452.258 36.84 451.778 38.9733 451.778 41.48C451.778 43.9333 452.258 46.0667 453.218 47.88C454.231 49.64 455.565 51 457.218 51.96C458.871 52.92 460.738 53.4 462.818 53.4Z" fill="url(#paint0_linear_8_200)"/>
<defs>
<linearGradient id="paint0_linear_8_200" x1="-7" y1="63" x2="489" y2="63" gradientUnits="userSpaceOnUse">
<stop stop-color="#EF5D70"/>
<stop offset="1" stop-color="#EFD677"/>
</linearGradient>
</defs>
</svg>
